<svg width="30" height="30" viewBox="0 0 30 30" fill="none" xmlns="http://www.w3.org/2000/svg">
<path d="M15 27.5C13.25 27.5 11.6146 27.1719 10.0938 26.5156C8.57292 25.8594 7.25 24.9688 6.125 23.8438C5 22.7188 4.11458 21.3906 3.46875 19.8594C2.82292 18.3281 2.5 16.6875 2.5 14.9375C2.5 13.1875 2.82292 11.5573 3.46875 10.0469C4.11458 8.53646 5 7.21875 6.125 6.09375C7.25 4.96875 8.57292 4.08854 10.0938 3.45313C11.6146 2.81771 13.25 2.5 15 2.5C16.75 2.5 18.3854 2.81771 19.9062 3.45313C21.4271 4.08854 22.75 4.96875 23.875 6.09375C25 7.21875 25.8854 8.53646 26.5312 10.0469C27.1771 11.5573 27.5 13.1875 27.5 14.9375C27.5 16.6875 27.1771 18.3281 26.5312 19.8594C25.8854 21.3906 25 22.7188 23.875 23.8438C22.75 24.9688 21.4271 25.8594 19.9062 26.5156C18.3854 27.1719 16.75 27.5 15 27.5ZM19.9375 10.3125H24.625C23.9375 8.875 22.9948 7.67708 21.7969 6.71875C20.599 5.76042 19.2188 5.08333 17.6562 4.6875C18.1771 5.45833 18.6198 6.29167 18.9844 7.1875C19.349 8.08333 19.6667 9.125 19.9375 10.3125ZM12 10.3125H18.0625C17.8333 9.20833 17.4479 8.14062 16.9062 7.10938C16.3646 6.07812 15.7292 5.16667 15 4.375C14.3333 4.9375 13.7708 5.67708 13.3125 6.59375C12.8542 7.51042 12.4167 8.75 12 10.3125ZM4.75 17.7812H9.71875C9.65625 17.2188 9.61979 16.7135 9.60938 16.2656C9.59896 15.8177 9.59375 15.375 9.59375 14.9375C9.59375 14.4167 9.60417 13.9531 9.625 13.5469C9.64583 13.1406 9.6875 12.6875 9.75 12.1875H4.75C4.60417 12.6875 4.50521 13.1354 4.45312 13.5312C4.40104 13.9271 4.375 14.3958 4.375 14.9375C4.375 15.4792 4.40104 15.9635 4.45312 16.3906C4.50521 16.8177 4.60417 17.2812 4.75 17.7812ZM12.3438 25.3125C11.8229 24.5208 11.375 23.6667 11 22.75C10.625 21.8333 10.3125 20.8021 10.0625 19.6562H5.375C6.16667 21.1354 7.08333 22.2969 8.125 23.1406C9.16667 23.9844 10.5729 24.7083 12.3438 25.3125ZM5.375 10.3125H10.0938C10.3229 9.1875 10.6146 8.18229 10.9688 7.29688C11.3229 6.41146 11.7708 5.55208 12.3125 4.71875C10.75 5.11458 9.38542 5.78125 8.21875 6.71875C7.05208 7.65625 6.10417 8.85417 5.375 10.3125ZM15 25.6875C15.7292 24.9375 16.3385 24.0781 16.8281 23.1094C17.3177 22.1406 17.7188 20.9896 18.0312 19.6562H12C12.2917 20.9062 12.6823 22.0312 13.1719 23.0312C13.6615 24.0312 14.2708 24.9167 15 25.6875ZM11.6562 17.7812H18.375C18.4583 17.1354 18.5104 16.6094 18.5312 16.2031C18.5521 15.7969 18.5625 15.375 18.5625 14.9375C18.5625 14.5208 18.5521 14.1198 18.5312 13.7344C18.5104 13.349 18.4583 12.8333 18.375 12.1875H11.6562C11.5729 12.8333 11.5208 13.349 11.5 13.7344C11.4792 14.1198 11.4688 14.5208 11.4688 14.9375C11.4688 15.375 11.4792 15.7969 11.5 16.2031C11.5208 16.6094 11.5729 17.1354 11.6562 17.7812ZM17.6875 25.2812C19.1875 24.8021 20.5365 24.0833 21.7344 23.125C22.9323 22.1667 23.8958 21.0104 24.625 19.6562H19.9688C19.6979 20.7812 19.3802 21.8021 19.0156 22.7188C18.651 23.6354 18.2083 24.4896 17.6875 25.2812ZM20.25 17.7812H25.25C25.3958 17.2812 25.4948 16.8177 25.5469 16.3906C25.599 15.9635 25.625 15.4792 25.625 14.9375C25.625 14.3958 25.599 13.9271 25.5469 13.5312C25.4948 13.1354 25.3958 12.6875 25.25 12.1875H20.2812C20.3438 12.9167 20.3854 13.474 20.4062 13.8594C20.4271 14.2448 20.4375 14.6042 20.4375 14.9375C20.4375 15.3958 20.4219 15.8281 20.3906 16.2344C20.3594 16.6406 20.3125 17.1562 20.25 17.7812Z" fill="white"/>
</svg>
