<svg width="130" height="130" viewBox="0 0 130 130" fill="none" xmlns="http://www.w3.org/2000/svg">
<rect width="130" height="130" fill="white"/>
<rect width="130" height="130" fill="#161616"/>
<path d="M70.6852 101.217C69.5652 101.217 68.4932 101.057 67.4692 100.737C66.4772 100.449 65.6132 99.8092 64.8772 98.8172C64.9732 98.0492 65.1972 96.9292 65.5492 95.4572C65.9332 93.9852 66.3972 92.3212 66.9412 90.4652C67.4852 88.5772 68.0612 86.6412 68.6692 84.6572C69.2772 82.6732 69.8692 80.7852 70.4452 78.9932C71.0532 77.1692 71.5812 75.5852 72.0292 74.2412C72.5092 72.8652 72.8612 71.8732 73.0852 71.2652C73.1812 71.0092 73.3412 70.6252 73.5652 70.1132C73.7892 69.6012 74.0772 69.0732 74.4292 68.5292C74.7812 67.9852 75.1812 67.5372 75.6292 67.1852C76.1092 66.8012 76.6212 66.6092 77.1652 66.6092C77.7092 66.6092 78.3172 66.8332 78.9892 67.2812C77.9972 69.5212 76.9892 72.0172 75.9652 74.7692C74.9732 77.4892 74.0132 80.3052 73.0852 83.2172C72.1892 86.0972 71.3572 88.9132 70.5892 91.6652C69.8532 94.3852 69.2452 96.8812 68.7652 99.1532C69.0212 99.2492 69.3732 99.3132 69.8212 99.3452C70.3012 99.4092 70.7492 99.4412 71.1652 99.4412C73.2452 99.4412 75.2292 98.9292 77.1172 97.9052C79.0052 96.9132 80.7332 95.5852 82.3012 93.9212C83.9012 92.2252 85.2932 90.3372 86.4772 88.2572C87.6612 86.1452 88.5732 83.9852 89.2132 81.7772C89.8532 79.5692 90.1732 77.4572 90.1732 75.4412C90.1732 72.8492 89.7252 70.7532 88.8292 69.1532C87.9652 67.5212 86.7652 66.3372 85.2292 65.6012C83.6932 64.8332 81.9332 64.4492 79.9492 64.4492C77.8692 64.4492 75.9972 64.8332 74.3332 65.6012C72.6692 66.3372 71.3572 67.3612 70.3972 68.6732C69.4692 69.9532 69.0052 71.4252 69.0052 73.0892C69.0052 73.4412 69.0372 73.8252 69.1012 74.2412C69.1652 74.6252 69.2772 75.0092 69.4372 75.3932C68.0612 75.3932 67.0692 75.1052 66.4612 74.5292C65.8852 73.9212 65.5972 73.1852 65.5972 72.3212C65.5972 71.2012 65.9972 70.0652 66.7972 68.9132C67.6292 67.7612 68.7652 66.7052 70.2052 65.7452C71.6772 64.7532 73.3732 63.9692 75.2932 63.3932C77.2132 62.7852 79.2932 62.4812 81.5332 62.4812C84.6692 62.4812 87.1812 63.0892 89.0692 64.3052C90.9572 65.4892 92.3172 67.1052 93.1492 69.1532C94.0132 71.1692 94.4452 73.4252 94.4452 75.9212C94.4452 78.6732 93.9972 81.3132 93.1012 83.8412C92.2372 86.3372 91.0212 88.6412 89.4532 90.7532C87.9172 92.8652 86.1252 94.7052 84.0772 96.2732C82.0612 97.8412 79.9012 99.0572 77.5972 99.9212C75.3252 100.785 73.0212 101.217 70.6852 101.217Z" fill="#F5F5F5"/>
<path d="M59.152 50.576C61.2 51.056 62.784 52.048 63.904 53.552C65.056 55.024 65.632 56.736 65.632 58.688C65.632 61.664 64.64 63.968 62.656 65.6C60.704 67.2 57.888 68 54.208 68H36.4V34.016H53.728C57.184 34.016 59.904 34.768 61.888 36.272C63.872 37.776 64.864 39.968 64.864 42.848C64.864 44.832 64.336 46.512 63.28 47.888C62.256 49.232 60.88 50.128 59.152 50.576ZM47.056 47.264H51.184C52.144 47.264 52.848 47.072 53.296 46.688C53.776 46.304 54.016 45.712 54.016 44.912C54.016 44.08 53.776 43.472 53.296 43.088C52.848 42.672 52.144 42.464 51.184 42.464H47.056V47.264ZM51.904 59.456C52.864 59.456 53.568 59.28 54.016 58.928C54.496 58.544 54.736 57.936 54.736 57.104C54.736 55.472 53.792 54.656 51.904 54.656H47.056V59.456H51.904Z" fill="#FF7A00"/>
</svg>
